<?xml version="1.0" encoding="utf-8"?>
<!-- Generator: Adobe Illustrator 25.2.0, SVG Export Plug-In . SVG Version: 6.00 Build 0)  -->
<svg version="1.1" id="Layer_1" xmlns="http://www.w3.org/2000/svg" xmlns:xlink="http://www.w3.org/1999/xlink" x="0px" y="0px"
	 viewBox="0 0 1920 1080" style="enable-background:new 0 0 1920 1080;" xml:space="preserve">
<style type="text/css">
	.st0{fill:#1A2A36;}
	.st1{fill:#FFFFFF;}
	.st2{fill:#191919;}
	.st3{font-family:'AktivGrotesk-Bold';}
	.st4{font-size:117.8749px;}
	.st5{fill:#AB273C;}
</style>
<rect class="st1" width="1920" height="1080"/>
<g>
	<text transform="matrix(1 0 0 1 698.8384 514.9131)"><tspan x="0" y="0" class="st2 st3 st4">Transportes </tspan><tspan x="0" y="128.75" class="st2 st3 st4">Fernández</tspan></text>
	<g>
		<path class="st5" d="M672.21,369.17H336.05l133.99,277.87V479.64l25.82,9.69v211.25l4.94,10.25l5.86-11.69V489.33l25.82-9.69
			v168.05L672.21,369.17z M384.9,387.61l116.45,28.01l115.9-25.27l-10.44,30.76l-105.46,18.12l-104.36-18.12L384.9,387.61z
			 M501.74,473.56l-94.82-9.6l-8.83-31.32l103.26,17.49l102.17-17.49l-8.21,31.34L501.74,473.56z"/>
	</g>
</g>
</svg>
